<?xml version="1.0" standalone="no"?>
<!DOCTYPE svg PUBLIC "-//W3C//DTD SVG 20010904//EN"
 "http://www.w3.org/TR/2001/REC-SVG-20010904/DTD/svg10.dtd">
<svg version="1.0" xmlns="http://www.w3.org/2000/svg"
 width="3725.000000pt" height="3725.000000pt" viewBox="0 0 3725.000000 3725.000000"
 preserveAspectRatio="xMidYMid meet">
<metadata>
Created by potrace 1.11, written by Peter Selinger 2001-2013
</metadata>
<g transform="translate(0.000000,3725.000000) scale(0.100000,-0.100000)"
fill="#000000" stroke="none">
<path d="M16064 36869 c-203 -203 -368 -373 -367 -377 2 -4 544 -548 1204
-1208 l1202 -1202 0 -1354 0 -1355 521 1 521 1 0 1353 0 1352 1207 1208 1208
1207 -368 367 c-202 202 -370 370 -373 373 -3 3 -180 -167 -392 -377 -1080
-1073 -1820 -1803 -1829 -1807 -5 -2 -98 86 -205 195 -346 352 -868 886 -983
1004 -61 63 -292 299 -513 524 -221 225 -414 421 -430 437 -15 16 -29 29 -31
29 -2 0 -170 -167 -372 -371z"/>
<path d="M13382 34186 l-2114 -2114 1 -538 c0 -297 0 -546 0 -554 1 -9 9 -16
19 -17 13 -1 194 -44 270 -65 7 -1 368 353 802 787 434 435 1485 1485 2335
2335 l1546 1546 -366 364 c-200 201 -368 366 -373 368 -4 1 -958 -949 -2120
-2112z"/>
<path d="M21380 35936 c-200 -200 -362 -367 -362 -371 0 -4 1048 -1056 2328
-2337 2238 -2239 2330 -2330 2359 -2324 16 3 84 19 150 34 l120 29 3 551 2
551 -315 318 c-677 682 -3910 3913 -3917 3913 -3 0 -169 -164 -368 -364z"/>
<path d="M16240 35195 c-1056 -1047 -4380 -4374 -4373 -4378 9 -6 388 -130
453 -148 19 -6 42 -13 50 -16 8 -3 74 -25 145 -49 72 -24 139 -48 150 -54 11
-5 79 -32 150 -60 72 -28 143 -58 159 -66 16 -8 32 -14 37 -14 20 0 393 -172
694 -321 436 -214 873 -487 1170 -730 315 -259 576 -533 806 -849 68 -93 177
-258 218 -331 66 -116 251 -500 294 -609 42 -107 115 -316 122 -350 2 -8 10
-40 19 -71 9 -31 18 -65 20 -75 2 -11 9 -37 15 -59 18 -71 59 -288 65 -352 14
-144 17 -180 21 -218 6 -64 16 -334 20 -550 2 -110 4 -204 4 -210 1 -8 1171
-12 1542 -6 l36 1 1 458 c0 251 1 464 1 473 1 15 126 16 1444 17 793 0 1449 1
1459 1 12 1 18 14 23 54 4 28 8 63 10 77 4 29 14 98 21 155 3 22 9 65 14 95 5
30 12 71 15 90 13 83 62 306 85 390 5 19 11 49 14 65 10 54 105 363 142 458
92 239 230 461 458 737 178 216 466 488 724 683 166 126 422 299 557 377 17 9
75 43 130 75 283 164 960 485 1330 630 255 100 605 213 720 231 17 3 48 10 70
16 35 9 66 16 100 22 6 1 11 6 13 11 2 6 -1025 1039 -2282 2296 l-2285 2285
-722 -721 c-396 -397 -724 -727 -728 -733 -3 -6 -5 -80 -3 -164 6 -269 8
-2599 2 -2607 -3 -5 -340 -8 -750 -7 l-745 1 1 1175 c0 646 2 1271 5 1387 l5
213 -100 99 c-56 55 -357 357 -671 671 -313 314 -597 597 -630 629 l-60 59
-185 -183z m880 -945 c245 -248 447 -453 449 -456 2 -2 4 -667 3 -1478 l-1
-1475 1053 0 1054 0 -2 1474 -1 1474 264 268 c587 597 847 859 858 866 8 5
125 -103 330 -307 175 -173 410 -405 523 -516 113 -112 474 -469 803 -794 329
-325 681 -672 782 -771 100 -99 449 -443 775 -765 325 -322 650 -642 722 -713
79 -77 124 -129 116 -132 -7 -2 -76 -25 -153 -51 -356 -117 -814 -294 -1063
-410 -41 -19 -76 -34 -79 -34 -2 0 -102 -49 -221 -108 -190 -96 -401 -211
-527 -290 -82 -51 -320 -207 -325 -212 -3 -3 -36 -28 -75 -55 -83 -58 -271
-203 -336 -260 -25 -22 -74 -65 -109 -95 -139 -120 -394 -385 -490 -510 -19
-25 -38 -47 -41 -50 -32 -29 -237 -332 -307 -457 -181 -317 -315 -779 -398
-1373 -4 -30 -9 -58 -10 -62 -1 -5 -2 -12 -3 -18 -1 -7 -506 -11 -1478 -12
l-1476 -3 0 -470 0 -470 -499 0 c-325 0 -498 3 -498 10 -1 6 -3 116 -5 245 -2
129 -6 258 -9 285 -3 28 -8 84 -11 125 -3 41 -8 89 -10 105 -3 17 -7 44 -10
60 -2 17 -7 48 -11 70 -48 327 -193 769 -375 1143 -114 233 -209 390 -436 711
-138 197 -499 576 -732 770 -426 355 -968 691 -1496 928 -38 17 -90 40 -115
51 -221 99 -873 351 -945 366 -17 4 -220 70 -225 74 -3 2 132 139 300 304 168
165 573 565 900 888 327 323 685 676 795 785 110 108 466 459 790 779 626 619
965 951 1159 1139 l120 115 115 -118 c64 -65 316 -321 561 -570z"/>
<path d="M18205 26008 l0 -473 -860 -5 -860 -5 -47 -24 c-211 -104 -217 -347
-12 -449 l41 -21 3 -193 c1 -106 3 -251 5 -323 2 -71 6 -269 9 -440 6 -335 14
-684 21 -970 2 -99 5 -204 5 -232 l0 -53 763 0 762 0 0 475 0 475 1367 0
c1087 0 1368 3 1369 13 0 6 2 23 4 37 1 14 6 90 10 170 4 80 9 168 10 195 2
28 6 109 9 180 4 72 8 157 11 190 2 33 7 114 11 180 3 66 7 149 9 185 2 36 7
121 10 190 3 69 8 150 10 180 4 51 12 196 20 356 11 219 17 299 21 306 3 4 13
8 22 8 55 0 175 88 209 153 23 44 23 152 0 195 -42 78 -131 139 -235 161 -38
8 -433 11 -1370 11 l-1317 0 0 -472z m2397 -57 c25 -1 28 -4 24 -33 -3 -18 -7
-96 -11 -173 -3 -77 -8 -162 -10 -190 -2 -27 -7 -104 -10 -170 -6 -125 -11
-215 -20 -375 -3 -52 -8 -131 -10 -175 -3 -44 -7 -134 -11 -200 -3 -66 -7
-149 -9 -185 -2 -36 -6 -126 -10 -200 -7 -117 -9 -155 -14 -205 -1 -7 -465
-10 -1376 -10 l-1375 0 0 -471 c0 -369 -3 -473 -12 -476 -7 -2 -231 -4 -498
-4 l-485 1 -5 65 c-3 36 -7 467 -9 958 -2 737 0 892 11 892 7 1 450 2 983 3
l970 2 2 463 c0 254 3 468 6 475 3 9 210 12 923 10 506 -1 931 -2 946 -2z"/>
<path d="M18234 23622 l-51 -3 -1 -452 c0 -249 -1 -462 -1 -473 l-1 -21 -802
-1 c-897 0 -854 3 -950 -71 -97 -74 -128 -208 -70 -301 24 -37 82 -88 123
-108 l37 -17 1 -100 c1 -55 4 -161 6 -235 2 -74 6 -229 10 -345 3 -115 8 -298
11 -406 6 -235 10 -396 19 -749 4 -146 8 -276 9 -290 l3 -25 729 0 729 0 0
475 0 475 1293 0 1292 0 1 25 c0 14 2 48 4 75 2 28 6 104 9 171 16 319 18 356
30 579 3 55 8 145 11 200 3 55 7 138 10 185 2 47 7 135 10 195 6 108 12 211
20 350 2 39 7 122 10 185 8 163 8 162 63 187 95 44 155 128 158 224 5 108 -80
205 -218 249 -66 22 -68 22 -1255 23 -653 1 -1211 1 -1239 -1z m2230 -582 c-1
-30 -5 -111 -9 -180 -8 -135 -10 -171 -19 -360 -4 -69 -8 -159 -11 -200 -2
-41 -7 -122 -10 -180 -3 -58 -8 -143 -11 -190 -2 -47 -7 -125 -9 -175 -4 -85
-15 -292 -20 -380 -1 -22 -3 -61 -4 -87 l-1 -48 -1300 0 -1300 0 0 -475 0
-475 -469 0 -468 0 -3 88 c-1 48 -3 137 -5 197 -3 121 -15 560 -20 725 -8 280
-17 617 -18 725 l-2 120 950 1 c523 1 955 2 960 3 7 1 10 160 10 469 0 257 2
469 6 472 4 3 400 5 881 5 l873 0 -1 -55z"/>
<path d="M18186 20821 c-2 -3 -3 -214 -3 -469 0 -254 -2 -464 -5 -467 -3 -3
-358 -6 -789 -8 l-784 -2 -45 -24 c-72 -38 -98 -59 -131 -108 -44 -63 -51
-148 -19 -216 25 -54 87 -111 143 -134 26 -11 37 -21 37 -37 0 -11 2 -86 5
-166 2 -80 7 -239 10 -355 3 -115 7 -268 10 -340 3 -71 7 -213 10 -315 5 -203
15 -523 20 -640 1 -41 3 -123 4 -182 l1 -108 700 0 700 0 0 475 c0 445 1 475
18 476 9 0 554 0 1209 0 656 0 1195 4 1197 7 2 4 7 68 11 142 7 154 11 237 20
400 4 63 8 152 10 197 3 78 10 198 20 378 3 44 7 125 10 180 3 55 7 147 10
205 3 58 8 141 10 185 2 44 7 136 11 205 4 69 8 144 9 168 1 23 4 43 6 45 2 2
24 15 49 29 198 115 187 339 -21 442 -30 14 -80 30 -110 35 -62 10 -2317 12
-2323 2z m2129 -628 c-5 -109 -11 -227 -20 -383 -5 -87 -12 -217 -20 -395 -3
-55 -7 -136 -10 -180 -4 -74 -11 -193 -20 -375 -2 -41 -7 -142 -10 -225 -4
-82 -11 -154 -15 -159 -5 -4 -554 -9 -1222 -10 l-1213 -1 0 -476 0 -476 -437
0 -438 0 -1 56 c-1 31 -3 94 -4 141 -2 47 -6 173 -9 280 -3 107 -9 281 -12
385 -6 207 -9 293 -19 702 l-8 273 924 2 924 3 1 470 c1 259 2 471 3 473 0 1
363 2 806 2 l805 0 -5 -107z"/>
<path d="M18197 18045 c-1 -5 -3 -218 -2 -472 0 -255 -2 -464 -5 -464 -3 -1
-338 -2 -745 -4 -733 -2 -741 -2 -796 -24 -64 -25 -142 -95 -165 -150 -47
-112 6 -233 134 -305 l57 -32 1 -54 c1 -30 5 -138 8 -240 4 -102 9 -243 11
-315 3 -71 7 -193 10 -270 14 -384 17 -468 20 -565 11 -335 19 -554 24 -585 1
-8 863 -12 1218 -6 l42 1 0 443 c0 243 0 459 0 480 l1 37 1165 0 c1102 0 1165
1 1166 18 1 9 3 28 4 42 1 14 5 95 9 180 4 85 8 180 10 210 3 30 7 123 11 205
3 83 8 179 10 215 6 89 14 262 20 400 3 63 7 151 10 195 3 44 8 136 11 205 3
69 7 157 9 195 2 39 4 88 4 111 1 38 3 42 49 62 174 81 215 275 83 395 -49 44
-103 73 -168 88 -63 16 -2201 19 -2206 4z m1977 -564 c-1 -25 -5 -107 -9 -181
-3 -74 -8 -171 -10 -215 -2 -44 -6 -138 -10 -210 -3 -71 -8 -161 -10 -200 -2
-38 -7 -126 -10 -195 -3 -69 -8 -152 -10 -185 -2 -33 -7 -132 -11 -220 -3 -88
-8 -173 -9 -190 -1 -16 -3 -46 -4 -67 l-1 -36 -1122 0 c-618 0 -1146 -1 -1174
-1 l-52 -1 0 -452 c0 -249 -1 -465 -1 -479 l-1 -27 -365 1 c-201 0 -368 3
-370 7 -5 7 -11 154 -20 445 -2 61 -6 182 -9 270 -8 210 -15 424 -21 615 -3
85 -7 214 -10 285 l-5 130 887 0 888 0 2 55 c0 30 2 244 2 476 l1 421 728 0
729 0 -3 -46z"/>
<path d="M18172 15369 c-16 -6 -17 -42 -17 -469 0 -254 -2 -466 -5 -470 -3 -6
-302 -11 -695 -12 -670 -3 -691 -4 -731 -23 -133 -66 -196 -182 -162 -298 16
-54 81 -123 147 -157 37 -18 57 -34 57 -47 0 -10 4 -63 7 -118 11 -157 20
-340 32 -665 3 -63 7 -163 10 -221 3 -58 7 -169 10 -245 3 -76 8 -173 10 -214
6 -108 18 -369 19 -407 0 -18 5 -33 11 -34 66 -4 1188 0 1192 5 3 3 6 203 6
443 l0 438 1073 0 1074 0 1 35 c0 19 2 49 3 65 2 17 6 102 10 190 4 88 9 189
11 225 2 36 7 119 10 185 7 156 14 299 20 405 3 47 7 141 10 210 3 69 8 157
10 195 2 39 7 133 11 210 7 153 11 224 13 241 0 6 24 21 52 33 171 74 227 258
115 379 -40 44 -103 87 -141 97 -16 4 -34 9 -40 11 -5 2 -23 6 -40 10 -39 8
-2061 11 -2083 3z m1861 -528 c8 -1 4 -152 -8 -336 -3 -38 -7 -131 -11 -205
-3 -74 -7 -162 -9 -195 -2 -33 -6 -125 -9 -205 -4 -80 -9 -176 -11 -215 -7
-112 -23 -451 -24 -512 l-1 -33 -1080 0 c-1022 0 -1080 -1 -1081 -17 0 -10 -1
-210 -1 -444 l-1 -426 -344 0 c-341 0 -343 0 -344 21 -2 26 -5 81 -13 271 -4
83 -9 195 -12 250 -2 55 -6 152 -9 215 -9 223 -15 386 -20 480 -3 52 -7 164
-10 248 -5 141 -5 152 12 153 10 0 383 1 828 2 l810 2 0 470 0 470 270 5 c205
4 1016 4 1068 1z"/>
<path d="M18209 12611 c0 -64 -1 -263 -1 -443 l-1 -327 -656 -3 c-649 -3 -656
-3 -701 -25 -98 -47 -166 -151 -154 -235 13 -83 74 -158 158 -193 20 -9 37
-21 37 -28 1 -6 3 -39 4 -72 9 -168 15 -312 20 -425 5 -120 8 -187 19 -420 3
-58 8 -166 11 -240 3 -74 8 -173 10 -220 2 -47 7 -168 10 -270 8 -255 13 -359
19 -368 2 -4 253 -7 558 -7 l553 0 2 455 c1 250 2 464 2 476 l1 21 978 1 c537
0 984 1 992 1 10 1 15 13 16 39 1 45 14 324 19 407 2 33 7 125 10 204 3 79 8
178 10 220 8 151 15 278 20 396 3 66 8 158 10 205 2 47 7 148 10 225 4 77 9
156 10 175 2 19 4 45 4 56 1 17 9 23 35 28 46 9 136 69 162 109 78 119 43 241
-91 321 -38 23 -78 38 -123 45 -43 6 -411 10 -1009 9 l-943 -1 -1 -116z m1696
-506 c-3 -71 -7 -170 -10 -220 -13 -267 -16 -338 -20 -420 -7 -155 -16 -328
-31 -630 -7 -130 -11 -207 -13 -256 l-1 -26 -667 -1 c-368 0 -817 -1 -1000 -1
l-332 -1 0 -427 c0 -236 0 -449 -1 -475 l0 -48 -300 0 -300 0 -1 73 c0 39 -2
83 -4 97 -1 14 -6 108 -10 210 -4 102 -8 214 -10 250 -3 66 -12 280 -20 495
-5 130 -11 274 -20 486 l-6 136 753 1 c414 0 760 1 769 1 15 1 16 42 17 429 0
235 1 434 1 442 1 13 75 15 607 15 l605 0 -6 -130z"/>
<path d="M18245 9669 c0 -310 -3 -473 -10 -475 -5 -2 -269 -5 -585 -6 l-575
-3 -55 -28 c-72 -37 -107 -71 -136 -132 -32 -67 -31 -127 2 -193 24 -48 79
-103 114 -114 9 -3 15 -20 16 -49 0 -24 4 -111 8 -194 4 -82 9 -186 11 -230 2
-44 6 -141 10 -215 3 -74 8 -184 10 -245 3 -60 7 -164 10 -230 6 -120 8 -176
20 -481 7 -179 8 -190 18 -200 5 -5 821 -9 929 -5 15 1 17 36 17 434 0 237 0
451 0 473 l1 42 553 0 c303 0 734 1 957 1 l405 1 1 43 c0 23 4 112 8 197 4 85
9 196 11 245 3 50 7 131 10 180 3 50 7 142 10 205 3 63 7 158 10 210 3 52 7
138 10 190 4 84 12 259 20 405 2 28 3 67 4 88 1 28 5 37 19 37 25 0 113 44
143 71 15 13 39 44 55 68 24 37 28 53 28 110 -1 74 -15 108 -65 159 -45 46
-103 78 -174 96 -51 14 -176 16 -935 16 l-875 0 0 -471z m1532 -58 c6 -1 10
-9 9 -18 -3 -16 -10 -141 -21 -398 -5 -99 -13 -263 -20 -395 -2 -47 -7 -137
-10 -200 -13 -279 -16 -330 -21 -414 -2 -49 -7 -92 -9 -96 -3 -5 -413 -8 -912
-8 -500 -1 -931 -1 -958 -1 l-50 -1 0 -474 0 -473 -217 0 c-191 0 -218 2 -219
16 -5 72 -20 417 -34 751 -2 74 -7 185 -10 245 -3 61 -7 169 -11 240 -3 72 -7
163 -9 203 l-3 72 751 0 752 0 -1 468 c0 257 3 472 7 477 5 6 178 9 491 8 265
-1 488 -2 495 -2z"/>
<path d="M18199 7668 c-1 -2 -2 -214 -3 -473 l-1 -470 -510 -5 c-281 -3 -519
-9 -530 -14 -94 -44 -149 -117 -148 -196 1 -26 6 -58 13 -71 17 -34 81 -99 97
-99 7 0 13 -6 14 -12 4 -46 6 -92 13 -238 4 -91 9 -192 11 -225 2 -33 6 -118
10 -190 3 -71 7 -166 10 -210 5 -77 8 -165 21 -495 3 -85 7 -180 9 -210 1 -30
4 -106 5 -167 2 -62 6 -113 9 -114 8 0 853 -1 871 0 13 1 15 59 15 474 l0 472
845 2 c465 1 857 2 871 2 25 1 26 3 29 69 1 37 3 92 5 122 2 30 6 118 9 195 4
77 9 172 11 210 2 39 7 133 10 210 4 77 8 172 10 210 2 39 7 124 10 190 3 66
8 152 10 190 2 39 7 133 10 210 9 225 11 234 56 273 126 108 88 258 -86 342
-25 13 -158 15 -862 18 -458 1 -834 1 -834 0z m1466 -533 c-5 -108 -10 -213
-20 -390 -3 -49 -7 -137 -10 -195 -4 -101 -11 -225 -20 -395 -2 -44 -7 -145
-11 -225 -5 -129 -10 -214 -13 -231 -1 -3 -394 -6 -873 -6 l-873 0 0 -474 0
-474 -187 -2 c-170 -1 -188 0 -189 15 -5 112 -8 184 -14 332 -3 96 -8 213 -10
260 -2 47 -7 146 -10 222 -5 131 -9 201 -20 408 -16 300 -16 310 2 311 10 0
311 2 668 2 l650 2 2 450 c1 248 2 461 2 475 l1 25 465 0 465 0 -5 -110z"/>
<path d="M18251 4809 c-1 -260 -2 -474 -4 -475 -2 -2 -206 -4 -455 -4 -304 -1
-462 -4 -484 -12 -52 -18 -113 -66 -137 -107 -25 -46 -28 -124 -6 -169 18 -35
74 -87 104 -97 12 -3 21 -9 22 -13 0 -4 2 -16 4 -27 3 -11 7 -40 10 -65 3 -25
7 -61 10 -80 2 -19 9 -73 15 -120 6 -47 13 -97 16 -113 2 -15 7 -51 9 -80 3
-28 7 -59 10 -67 2 -8 7 -42 10 -75 3 -33 8 -67 10 -75 2 -8 7 -42 10 -75 6
-62 12 -108 20 -160 3 -16 7 -46 10 -65 3 -19 11 -80 20 -135 8 -55 17 -118
20 -140 12 -81 17 -95 33 -95 32 -1 577 -2 617 -1 l40 1 0 333 0 332 738 1
c406 1 739 3 742 5 5 5 11 41 20 119 4 30 8 66 10 80 2 14 6 43 9 65 3 22 8
65 12 95 4 30 8 62 9 70 11 90 18 148 20 160 2 8 6 44 10 80 3 36 8 76 10 90
2 14 6 50 10 80 3 30 8 66 10 80 2 14 7 54 11 90 3 36 7 72 9 80 2 8 6 44 10
80 3 36 8 76 10 90 2 14 6 54 10 90 3 36 8 72 10 80 2 8 7 48 10 87 4 40 8 81
10 90 2 10 4 21 4 25 1 4 15 15 32 23 47 25 97 82 110 125 28 93 -27 193 -133
241 l-53 24 -772 3 -772 2 0 -471z m1313 11 c-1 -35 -14 -162 -19 -190 -2 -8
-6 -44 -9 -80 -8 -80 -15 -137 -21 -170 -2 -14 -7 -56 -10 -95 -3 -38 -8 -77
-10 -85 -2 -8 -6 -42 -10 -75 -3 -33 -7 -71 -10 -85 -2 -14 -7 -52 -10 -85 -3
-33 -8 -71 -10 -85 -3 -14 -7 -47 -9 -75 -3 -27 -13 -107 -22 -176 l-16 -126
-732 -1 c-402 0 -743 -1 -758 -1 l-27 -1 0 -222 c0 -123 0 -274 0 -335 l-1
-113 -92 3 -93 2 -6 45 c-4 25 -9 70 -13 100 -4 30 -8 66 -11 80 -2 14 -11 84
-19 155 -9 72 -18 139 -20 150 -2 11 -7 47 -10 80 -4 33 -9 74 -11 90 -6 38
-12 86 -20 150 -4 28 -8 61 -11 75 -2 14 -7 54 -10 90 l-6 65 586 0 586 0 1
30 c0 16 1 230 1 475 l1 445 411 0 411 0 -1 -35z"/>
<path d="M18302 2763 c0 -175 -1 -326 -1 -335 -1 -16 -15 -18 -152 -18 l-151
0 -39 33 c-90 77 -231 74 -319 -7 -15 -14 -43 -26 -67 -29 -24 -3 -63 -17 -88
-32 -147 -86 -117 -267 53 -320 28 -9 52 -21 52 -26 0 -6 -13 -22 -29 -37 -16
-15 -43 -52 -60 -82 -19 -34 -53 -73 -91 -104 -33 -26 -65 -57 -71 -69 -18
-33 -4 -90 54 -215 l56 -119 -16 -44 c-21 -61 -13 -181 17 -238 17 -34 20 -54
16 -90 -3 -25 -8 -68 -12 -96 -3 -27 -7 -66 -10 -86 -2 -20 -7 -57 -9 -82 -3
-26 -54 -163 -120 -323 -125 -303 -130 -321 -85 -384 52 -73 162 -80 222 -13
10 11 38 68 63 129 25 60 50 118 55 129 49 103 140 353 145 402 4 32 11 78 17
103 5 25 12 56 14 70 3 14 7 32 9 40 2 8 7 31 10 50 3 19 10 58 15 85 5 28 12
66 15 85 3 19 8 36 9 38 2 2 12 -18 22 -45 10 -26 24 -58 32 -71 12 -18 13
-46 8 -136 -8 -133 3 -173 56 -206 l33 -20 -31 -6 c-97 -19 -113 -129 -26
-174 13 -6 69 -12 130 -13 94 0 109 -3 121 -20 42 -58 245 -290 336 -384 l106
-108 29 35 c96 112 353 529 469 758 17 34 37 62 44 61 38 -5 69 4 96 27 57 47
38 118 -40 151 -17 7 -154 11 -402 11 l-377 0 0 -169 c0 -128 -3 -169 -12
-169 -34 -1 -268 -1 -303 0 -38 1 -39 1 -17 13 30 17 48 44 61 93 l11 40 55
-1 c43 -1 55 3 56 15 0 8 1 84 1 168 l1 152 56 1 c31 0 239 0 462 -1 379 0
407 1 412 17 3 10 20 59 37 108 52 153 138 497 206 820 25 121 27 129 38 175
3 14 8 36 10 50 3 14 10 50 16 80 6 30 13 69 16 85 2 17 7 37 10 46 2 10 7 30
9 45 2 16 6 38 9 49 2 11 5 28 5 37 1 10 19 23 47 34 136 52 162 222 45 299
-82 55 -69 54 -727 55 l-612 0 0 -317z m978 -71 c0 -8 -12 -81 -26 -161 -14
-80 -27 -157 -29 -171 -11 -59 -28 -150 -45 -235 -5 -27 -11 -61 -14 -75 -2
-14 -13 -68 -24 -120 -12 -52 -23 -106 -25 -120 -3 -14 -8 -36 -11 -50 -3 -14
-8 -36 -10 -50 -6 -33 -53 -197 -67 -232 -7 -18 -19 -28 -33 -29 -11 0 -218
-1 -458 -1 l-438 -1 0 -34 c0 -31 -2 -34 -22 -27 -52 16 -76 35 -92 74 -26 64
-23 70 34 70 40 0 55 5 80 28 36 32 45 78 26 123 -20 46 -46 59 -129 65 -73 4
-80 6 -83 27 -1 7 -11 57 -22 112 -11 55 -22 112 -25 128 l-4 27 411 0 411 0
0 334 0 334 297 -1 c259 0 298 -2 298 -15z m-380 -1850 c0 -6 -113 -221 -258
-492 -46 -87 -47 -87 -75 -54 -14 16 -37 43 -52 59 -45 49 -99 109 -117 131
-18 20 -18 20 88 21 58 1 109 4 112 8 4 4 8 77 8 163 1 86 2 160 3 163 1 7
291 8 291 1z"/>
</g>
</svg>
